<mxfile host="app.diagrams.net" modified="2020-08-27T07:26:56.830Z" agent="5.0 (Windows NT 10.0; Win64; x64) AppleWebKit/537.36 (KHTML, like Gecko) Chrome/84.0.4147.105 Safari/537.36" etag="z9iwZoN4ZInBEuobSs5E" version="13.6.5" type="github" pages="2">
  <diagram id="C5RBs43oDa-KdzZeNtuy" name="DB_DESIGN">
    <mxGraphModel dx="1038" dy="580" grid="1" gridSize="10" guides="1" tooltips="1" connect="1" arrows="1" fold="1" page="1" pageScale="1" pageWidth="827" pageHeight="1169" math="0" shadow="0">
      <root>
        <mxCell id="WIyWlLk6GJQsqaUBKTNV-0" />
        <mxCell id="WIyWlLk6GJQsqaUBKTNV-1" parent="WIyWlLk6GJQsqaUBKTNV-0" />
        <mxCell id="klmerCUItKwA0fcdnIP1-0" value="Goods" style="swimlane;fontStyle=0;childLayout=stackLayout;horizontal=1;startSize=26;fillColor=none;horizontalStack=0;resizeParent=1;resizeParentMax=0;resizeLast=0;collapsible=1;marginBottom=0;" vertex="1" parent="WIyWlLk6GJQsqaUBKTNV-1">
          <mxGeometry x="130" y="300" width="140" height="130" as="geometry" />
        </mxCell>
        <mxCell id="klmerCUItKwA0fcdnIP1-1" value="*ID : int" style="text;strokeColor=none;fillColor=none;align=left;verticalAlign=top;spacingLeft=4;spacingRight=4;overflow=hidden;rotatable=0;points=[[0,0.5],[1,0.5]];portConstraint=eastwest;" vertex="1" parent="klmerCUItKwA0fcdnIP1-0">
          <mxGeometry y="26" width="140" height="26" as="geometry" />
        </mxCell>
        <mxCell id="klmerCUItKwA0fcdnIP1-2" value="Code : varchar" style="text;strokeColor=none;fillColor=none;align=left;verticalAlign=top;spacingLeft=4;spacingRight=4;overflow=hidden;rotatable=0;points=[[0,0.5],[1,0.5]];portConstraint=eastwest;" vertex="1" parent="klmerCUItKwA0fcdnIP1-0">
          <mxGeometry y="52" width="140" height="26" as="geometry" />
        </mxCell>
        <mxCell id="klmerCUItKwA0fcdnIP1-3" value="Name : varchar" style="text;strokeColor=none;fillColor=none;align=left;verticalAlign=top;spacingLeft=4;spacingRight=4;overflow=hidden;rotatable=0;points=[[0,0.5],[1,0.5]];portConstraint=eastwest;" vertex="1" parent="klmerCUItKwA0fcdnIP1-0">
          <mxGeometry y="78" width="140" height="26" as="geometry" />
        </mxCell>
        <mxCell id="klmerCUItKwA0fcdnIP1-4" value="Desc : varchar" style="text;strokeColor=none;fillColor=none;align=left;verticalAlign=top;spacingLeft=4;spacingRight=4;overflow=hidden;rotatable=0;points=[[0,0.5],[1,0.5]];portConstraint=eastwest;" vertex="1" parent="klmerCUItKwA0fcdnIP1-0">
          <mxGeometry y="104" width="140" height="26" as="geometry" />
        </mxCell>
        <mxCell id="klmerCUItKwA0fcdnIP1-8" value="Aucntion" style="swimlane;fontStyle=0;childLayout=stackLayout;horizontal=1;startSize=26;fillColor=none;horizontalStack=0;resizeParent=1;resizeParentMax=0;resizeLast=0;collapsible=1;marginBottom=0;" vertex="1" parent="WIyWlLk6GJQsqaUBKTNV-1">
          <mxGeometry x="490" y="300" width="160" height="208" as="geometry" />
        </mxCell>
        <mxCell id="klmerCUItKwA0fcdnIP1-9" value="ID : int" style="text;strokeColor=none;fillColor=none;align=left;verticalAlign=top;spacingLeft=4;spacingRight=4;overflow=hidden;rotatable=0;points=[[0,0.5],[1,0.5]];portConstraint=eastwest;" vertex="1" parent="klmerCUItKwA0fcdnIP1-8">
          <mxGeometry y="26" width="160" height="26" as="geometry" />
        </mxCell>
        <mxCell id="klmerCUItKwA0fcdnIP1-10" value="Start_Time : datetime" style="text;strokeColor=none;fillColor=none;align=left;verticalAlign=top;spacingLeft=4;spacingRight=4;overflow=hidden;rotatable=0;points=[[0,0.5],[1,0.5]];portConstraint=eastwest;" vertex="1" parent="klmerCUItKwA0fcdnIP1-8">
          <mxGeometry y="52" width="160" height="26" as="geometry" />
        </mxCell>
        <mxCell id="klmerCUItKwA0fcdnIP1-11" value="End_Time: datetime" style="text;strokeColor=none;fillColor=none;align=left;verticalAlign=top;spacingLeft=4;spacingRight=4;overflow=hidden;rotatable=0;points=[[0,0.5],[1,0.5]];portConstraint=eastwest;" vertex="1" parent="klmerCUItKwA0fcdnIP1-8">
          <mxGeometry y="78" width="160" height="26" as="geometry" />
        </mxCell>
        <mxCell id="klmerCUItKwA0fcdnIP1-12" value="Goods_Id : int" style="text;strokeColor=none;fillColor=none;align=left;verticalAlign=top;spacingLeft=4;spacingRight=4;overflow=hidden;rotatable=0;points=[[0,0.5],[1,0.5]];portConstraint=eastwest;" vertex="1" parent="klmerCUItKwA0fcdnIP1-8">
          <mxGeometry y="104" width="160" height="26" as="geometry" />
        </mxCell>
        <mxCell id="klmerCUItKwA0fcdnIP1-18" value="Status : varchar" style="text;strokeColor=none;fillColor=none;align=left;verticalAlign=top;spacingLeft=4;spacingRight=4;overflow=hidden;rotatable=0;points=[[0,0.5],[1,0.5]];portConstraint=eastwest;" vertex="1" parent="klmerCUItKwA0fcdnIP1-8">
          <mxGeometry y="130" width="160" height="26" as="geometry" />
        </mxCell>
        <mxCell id="klmerCUItKwA0fcdnIP1-19" value="Lowest_Bit: number" style="text;strokeColor=none;fillColor=none;align=left;verticalAlign=top;spacingLeft=4;spacingRight=4;overflow=hidden;rotatable=0;points=[[0,0.5],[1,0.5]];portConstraint=eastwest;" vertex="1" parent="klmerCUItKwA0fcdnIP1-8">
          <mxGeometry y="156" width="160" height="26" as="geometry" />
        </mxCell>
        <mxCell id="klmerCUItKwA0fcdnIP1-20" value="Lowest_Bit_Rate: number" style="text;strokeColor=none;fillColor=none;align=left;verticalAlign=top;spacingLeft=4;spacingRight=4;overflow=hidden;rotatable=0;points=[[0,0.5],[1,0.5]];portConstraint=eastwest;" vertex="1" parent="klmerCUItKwA0fcdnIP1-8">
          <mxGeometry y="182" width="160" height="26" as="geometry" />
        </mxCell>
        <mxCell id="klmerCUItKwA0fcdnIP1-17" value="1:1" style="rounded=0;orthogonalLoop=1;jettySize=auto;html=1;exitX=1;exitY=0.5;exitDx=0;exitDy=0;edgeStyle=orthogonalEdgeStyle;" edge="1" parent="WIyWlLk6GJQsqaUBKTNV-1" source="klmerCUItKwA0fcdnIP1-1" target="klmerCUItKwA0fcdnIP1-12">
          <mxGeometry relative="1" as="geometry" />
        </mxCell>
        <mxCell id="klmerCUItKwA0fcdnIP1-21" value="Player_Bit" style="swimlane;fontStyle=0;childLayout=stackLayout;horizontal=1;startSize=26;fillColor=none;horizontalStack=0;resizeParent=1;resizeParentMax=0;resizeLast=0;collapsible=1;marginBottom=0;" vertex="1" parent="WIyWlLk6GJQsqaUBKTNV-1">
          <mxGeometry x="480" y="550" width="160" height="156" as="geometry" />
        </mxCell>
        <mxCell id="klmerCUItKwA0fcdnIP1-22" value="ID : int" style="text;strokeColor=none;fillColor=none;align=left;verticalAlign=top;spacingLeft=4;spacingRight=4;overflow=hidden;rotatable=0;points=[[0,0.5],[1,0.5]];portConstraint=eastwest;" vertex="1" parent="klmerCUItKwA0fcdnIP1-21">
          <mxGeometry y="26" width="160" height="26" as="geometry" />
        </mxCell>
        <mxCell id="klmerCUItKwA0fcdnIP1-23" value="Bit_Value : number" style="text;strokeColor=none;fillColor=none;align=left;verticalAlign=top;spacingLeft=4;spacingRight=4;overflow=hidden;rotatable=0;points=[[0,0.5],[1,0.5]];portConstraint=eastwest;" vertex="1" parent="klmerCUItKwA0fcdnIP1-21">
          <mxGeometry y="52" width="160" height="26" as="geometry" />
        </mxCell>
        <mxCell id="klmerCUItKwA0fcdnIP1-24" value="User_Id : int" style="text;strokeColor=none;fillColor=none;align=left;verticalAlign=top;spacingLeft=4;spacingRight=4;overflow=hidden;rotatable=0;points=[[0,0.5],[1,0.5]];portConstraint=eastwest;" vertex="1" parent="klmerCUItKwA0fcdnIP1-21">
          <mxGeometry y="78" width="160" height="26" as="geometry" />
        </mxCell>
        <mxCell id="klmerCUItKwA0fcdnIP1-25" value="Aucntion_Id : int" style="text;strokeColor=none;fillColor=none;align=left;verticalAlign=top;spacingLeft=4;spacingRight=4;overflow=hidden;rotatable=0;points=[[0,0.5],[1,0.5]];portConstraint=eastwest;" vertex="1" parent="klmerCUItKwA0fcdnIP1-21">
          <mxGeometry y="104" width="160" height="26" as="geometry" />
        </mxCell>
        <mxCell id="klmerCUItKwA0fcdnIP1-26" value="Bit_Time: datetime" style="text;strokeColor=none;fillColor=none;align=left;verticalAlign=top;spacingLeft=4;spacingRight=4;overflow=hidden;rotatable=0;points=[[0,0.5],[1,0.5]];portConstraint=eastwest;" vertex="1" parent="klmerCUItKwA0fcdnIP1-21">
          <mxGeometry y="130" width="160" height="26" as="geometry" />
        </mxCell>
        <mxCell id="klmerCUItKwA0fcdnIP1-29" value="1:Many" style="edgeStyle=orthogonalEdgeStyle;rounded=0;orthogonalLoop=1;jettySize=auto;html=1;exitX=1;exitY=0.5;exitDx=0;exitDy=0;" edge="1" parent="WIyWlLk6GJQsqaUBKTNV-1" source="klmerCUItKwA0fcdnIP1-9" target="klmerCUItKwA0fcdnIP1-25">
          <mxGeometry relative="1" as="geometry">
            <Array as="points">
              <mxPoint x="760" y="339" />
              <mxPoint x="760" y="667" />
            </Array>
          </mxGeometry>
        </mxCell>
        <mxCell id="klmerCUItKwA0fcdnIP1-30" value="User" style="swimlane;fontStyle=0;childLayout=stackLayout;horizontal=1;startSize=26;fillColor=none;horizontalStack=0;resizeParent=1;resizeParentMax=0;resizeLast=0;collapsible=1;marginBottom=0;" vertex="1" parent="WIyWlLk6GJQsqaUBKTNV-1">
          <mxGeometry x="130" y="550" width="160" height="78" as="geometry" />
        </mxCell>
        <mxCell id="klmerCUItKwA0fcdnIP1-31" value="ID : int" style="text;strokeColor=none;fillColor=none;align=left;verticalAlign=top;spacingLeft=4;spacingRight=4;overflow=hidden;rotatable=0;points=[[0,0.5],[1,0.5]];portConstraint=eastwest;" vertex="1" parent="klmerCUItKwA0fcdnIP1-30">
          <mxGeometry y="26" width="160" height="26" as="geometry" />
        </mxCell>
        <mxCell id="klmerCUItKwA0fcdnIP1-32" value="Name : number" style="text;strokeColor=none;fillColor=none;align=left;verticalAlign=top;spacingLeft=4;spacingRight=4;overflow=hidden;rotatable=0;points=[[0,0.5],[1,0.5]];portConstraint=eastwest;" vertex="1" parent="klmerCUItKwA0fcdnIP1-30">
          <mxGeometry y="52" width="160" height="26" as="geometry" />
        </mxCell>
        <mxCell id="klmerCUItKwA0fcdnIP1-36" value="1:1" style="edgeStyle=orthogonalEdgeStyle;rounded=0;orthogonalLoop=1;jettySize=auto;html=1;exitX=1;exitY=0.5;exitDx=0;exitDy=0;entryX=0;entryY=0.5;entryDx=0;entryDy=0;" edge="1" parent="WIyWlLk6GJQsqaUBKTNV-1" source="klmerCUItKwA0fcdnIP1-31" target="klmerCUItKwA0fcdnIP1-24">
          <mxGeometry relative="1" as="geometry" />
        </mxCell>
      </root>
    </mxGraphModel>
  </diagram>
  <diagram id="vWbqcFO_lUKcpxeVz8K7" name="Get_Auction_Information">
    <mxGraphModel dx="1865" dy="580" grid="1" gridSize="10" guides="1" tooltips="1" connect="1" arrows="1" fold="1" page="1" pageScale="1" pageWidth="827" pageHeight="1169" math="0" shadow="0">
      <root>
        <mxCell id="4Vxx2f3xJ7-88e2hnjxp-0" />
        <mxCell id="4Vxx2f3xJ7-88e2hnjxp-1" parent="4Vxx2f3xJ7-88e2hnjxp-0" />
        <mxCell id="4Vxx2f3xJ7-88e2hnjxp-2" value="Api Uri : /get_aunction_information/:goods_id" style="swimlane;html=1;childLayout=stackLayout;resizeParent=1;resizeParentMax=0;horizontal=1;startSize=20;horizontalStack=0;" vertex="1" parent="4Vxx2f3xJ7-88e2hnjxp-1">
          <mxGeometry x="-20" y="90" width="800" height="700" as="geometry" />
        </mxCell>
        <mxCell id="4Vxx2f3xJ7-88e2hnjxp-9" value="Client" style="swimlane;html=1;startSize=20;horizontal=0;" vertex="1" parent="4Vxx2f3xJ7-88e2hnjxp-2">
          <mxGeometry y="20" width="800" height="170" as="geometry" />
        </mxCell>
        <mxCell id="4Vxx2f3xJ7-88e2hnjxp-10" value="Http Request" style="rounded=1;whiteSpace=wrap;html=1;" vertex="1" parent="4Vxx2f3xJ7-88e2hnjxp-9">
          <mxGeometry x="60" y="40" width="120" height="60" as="geometry" />
        </mxCell>
        <mxCell id="4Vxx2f3xJ7-88e2hnjxp-3" value="Controller" style="swimlane;html=1;startSize=20;horizontal=0;" vertex="1" parent="4Vxx2f3xJ7-88e2hnjxp-2">
          <mxGeometry y="190" width="800" height="170" as="geometry" />
        </mxCell>
        <mxCell id="4Vxx2f3xJ7-88e2hnjxp-22" style="edgeStyle=orthogonalEdgeStyle;rounded=0;orthogonalLoop=1;jettySize=auto;html=1;exitX=1;exitY=0.5;exitDx=0;exitDy=0;entryX=0;entryY=0.5;entryDx=0;entryDy=0;" edge="1" parent="4Vxx2f3xJ7-88e2hnjxp-3" source="4Vxx2f3xJ7-88e2hnjxp-19" target="4Vxx2f3xJ7-88e2hnjxp-21">
          <mxGeometry relative="1" as="geometry">
            <Array as="points">
              <mxPoint x="190" y="80" />
              <mxPoint x="190" y="80" />
            </Array>
          </mxGeometry>
        </mxCell>
        <mxCell id="4Vxx2f3xJ7-88e2hnjxp-19" value="&lt;span&gt;Get Method&lt;/span&gt;&lt;br&gt;&lt;span&gt;input&lt;/span&gt;&lt;br&gt;&lt;span&gt;Goods_id&lt;/span&gt;" style="shape=parallelogram;perimeter=parallelogramPerimeter;whiteSpace=wrap;html=1;fixedSize=1;" vertex="1" parent="4Vxx2f3xJ7-88e2hnjxp-3">
          <mxGeometry x="40" y="50" width="120" height="60" as="geometry" />
        </mxCell>
        <mxCell id="4Vxx2f3xJ7-88e2hnjxp-21" value="Call Service" style="rounded=0;whiteSpace=wrap;html=1;" vertex="1" parent="4Vxx2f3xJ7-88e2hnjxp-3">
          <mxGeometry x="314" y="50" width="120" height="60" as="geometry" />
        </mxCell>
        <mxCell id="4Vxx2f3xJ7-88e2hnjxp-4" value="Service" style="swimlane;html=1;startSize=20;horizontal=0;" vertex="1" parent="4Vxx2f3xJ7-88e2hnjxp-2">
          <mxGeometry y="360" width="800" height="180" as="geometry" />
        </mxCell>
        <mxCell id="4Vxx2f3xJ7-88e2hnjxp-23" value="&lt;span&gt;input&lt;/span&gt;&lt;br&gt;&lt;span&gt;Goods_id&lt;/span&gt;" style="shape=parallelogram;perimeter=parallelogramPerimeter;whiteSpace=wrap;html=1;fixedSize=1;rounded=0;" vertex="1" parent="4Vxx2f3xJ7-88e2hnjxp-4">
          <mxGeometry x="40" y="60" width="120" height="60" as="geometry" />
        </mxCell>
        <mxCell id="4Vxx2f3xJ7-88e2hnjxp-26" value="" style="edgeStyle=orthogonalEdgeStyle;rounded=0;orthogonalLoop=1;jettySize=auto;html=1;" edge="1" parent="4Vxx2f3xJ7-88e2hnjxp-4" source="4Vxx2f3xJ7-88e2hnjxp-23" target="4Vxx2f3xJ7-88e2hnjxp-25">
          <mxGeometry relative="1" as="geometry" />
        </mxCell>
        <mxCell id="4Vxx2f3xJ7-88e2hnjxp-25" value="Call Repository" style="whiteSpace=wrap;html=1;rounded=0;" vertex="1" parent="4Vxx2f3xJ7-88e2hnjxp-4">
          <mxGeometry x="314" y="60" width="120" height="60" as="geometry" />
        </mxCell>
        <mxCell id="4Vxx2f3xJ7-88e2hnjxp-5" value="Repository" style="swimlane;html=1;startSize=20;horizontal=0;" vertex="1" parent="4Vxx2f3xJ7-88e2hnjxp-2">
          <mxGeometry y="540" width="800" height="160" as="geometry" />
        </mxCell>
        <mxCell id="4Vxx2f3xJ7-88e2hnjxp-31" style="edgeStyle=orthogonalEdgeStyle;rounded=0;orthogonalLoop=1;jettySize=auto;html=1;exitX=1;exitY=0.5;exitDx=0;exitDy=0;entryX=0;entryY=0.5;entryDx=0;entryDy=0;" edge="1" parent="4Vxx2f3xJ7-88e2hnjxp-5" source="4Vxx2f3xJ7-88e2hnjxp-27" target="4Vxx2f3xJ7-88e2hnjxp-29">
          <mxGeometry relative="1" as="geometry">
            <Array as="points">
              <mxPoint x="150" y="80" />
            </Array>
          </mxGeometry>
        </mxCell>
        <mxCell id="4Vxx2f3xJ7-88e2hnjxp-29" value="Connect to database" style="ellipse;whiteSpace=wrap;html=1;aspect=fixed;" vertex="1" parent="4Vxx2f3xJ7-88e2hnjxp-5">
          <mxGeometry x="334" y="40" width="80" height="80" as="geometry" />
        </mxCell>
        <mxCell id="4Vxx2f3xJ7-88e2hnjxp-27" value="&lt;span&gt;input&lt;/span&gt;&lt;br&gt;&lt;span&gt;Goods_id&lt;/span&gt;" style="shape=parallelogram;perimeter=parallelogramPerimeter;whiteSpace=wrap;html=1;fixedSize=1;rounded=0;" vertex="1" parent="4Vxx2f3xJ7-88e2hnjxp-5">
          <mxGeometry x="40" y="50" width="120" height="60" as="geometry" />
        </mxCell>
        <mxCell id="4Vxx2f3xJ7-88e2hnjxp-20" style="edgeStyle=orthogonalEdgeStyle;rounded=0;orthogonalLoop=1;jettySize=auto;html=1;exitX=0.5;exitY=1;exitDx=0;exitDy=0;" edge="1" parent="4Vxx2f3xJ7-88e2hnjxp-2" source="4Vxx2f3xJ7-88e2hnjxp-10" target="4Vxx2f3xJ7-88e2hnjxp-19">
          <mxGeometry relative="1" as="geometry" />
        </mxCell>
        <mxCell id="4Vxx2f3xJ7-88e2hnjxp-24" value="" style="edgeStyle=orthogonalEdgeStyle;rounded=0;orthogonalLoop=1;jettySize=auto;html=1;exitX=0.55;exitY=1;exitDx=0;exitDy=0;exitPerimeter=0;" edge="1" parent="4Vxx2f3xJ7-88e2hnjxp-2" source="4Vxx2f3xJ7-88e2hnjxp-21" target="4Vxx2f3xJ7-88e2hnjxp-23">
          <mxGeometry relative="1" as="geometry">
            <Array as="points">
              <mxPoint x="374" y="300" />
              <mxPoint x="374" y="340" />
              <mxPoint x="100" y="340" />
            </Array>
          </mxGeometry>
        </mxCell>
        <mxCell id="4Vxx2f3xJ7-88e2hnjxp-28" value="" style="edgeStyle=orthogonalEdgeStyle;rounded=0;orthogonalLoop=1;jettySize=auto;html=1;" edge="1" parent="4Vxx2f3xJ7-88e2hnjxp-2" source="4Vxx2f3xJ7-88e2hnjxp-25" target="4Vxx2f3xJ7-88e2hnjxp-27">
          <mxGeometry relative="1" as="geometry">
            <Array as="points">
              <mxPoint x="374" y="520" />
              <mxPoint x="100" y="520" />
            </Array>
          </mxGeometry>
        </mxCell>
        <mxCell id="4Vxx2f3xJ7-88e2hnjxp-32" value="Select&amp;nbsp;&lt;span&gt;Goods and&amp;nbsp;&lt;/span&gt;" style="whiteSpace=wrap;html=1;" vertex="1" parent="4Vxx2f3xJ7-88e2hnjxp-1">
          <mxGeometry x="454" y="680" width="120" height="60" as="geometry" />
        </mxCell>
        <mxCell id="4Vxx2f3xJ7-88e2hnjxp-33" value="" style="edgeStyle=orthogonalEdgeStyle;rounded=0;orthogonalLoop=1;jettySize=auto;html=1;" edge="1" parent="4Vxx2f3xJ7-88e2hnjxp-1" source="4Vxx2f3xJ7-88e2hnjxp-29" target="4Vxx2f3xJ7-88e2hnjxp-32">
          <mxGeometry relative="1" as="geometry" />
        </mxCell>
      </root>
    </mxGraphModel>
  </diagram>
</mxfile>
